<?xml version="1.0" standalone="no"?>
<!DOCTYPE svg PUBLIC "-//W3C//DTD SVG 20010904//EN"
 "http://www.w3.org/TR/2001/REC-SVG-20010904/DTD/svg10.dtd">
<svg version="1.0" xmlns="http://www.w3.org/2000/svg"
 width="1200.000000pt" height="1200.000000pt" viewBox="0 0 1200.000000 1200.000000"
 preserveAspectRatio="xMidYMid meet">
<metadata>
Created by potrace 1.11, written by Peter Selinger 2001-2013
</metadata>
<g transform="translate(0.000000,1200.000000) scale(0.100000,-0.100000)"
fill="#000000" stroke="none">
<path d="M4840 9022 c-62 -18 -98 -47 -124 -95 l-26 -52 0 -360 c0 -240 4
-365 11 -372 5 -5 9 -34 7 -63 -3 -50 -5 -53 -46 -76 -29 -16 -58 -24 -92 -24
-27 0 -52 -4 -55 -10 -3 -5 -17 -10 -31 -10 -13 0 -24 -4 -24 -10 0 -5 -13
-10 -30 -10 -16 0 -30 -4 -30 -10 0 -5 -14 -10 -30 -10 -17 0 -39 -5 -50 -12
-24 -15 -70 7 -70 34 0 10 -4 18 -10 18 -5 0 -10 9 -10 19 0 11 -4 21 -8 23
-4 2 -35 56 -68 122 -80 160 -78 156 -86 156 -5 0 -8 8 -8 18 0 10 -9 24 -20
32 -11 8 -20 21 -20 28 0 8 -8 26 -17 40 -32 48 -42 66 -62 108 -11 22 -27 47
-36 54 -8 7 -15 18 -15 25 0 7 -7 19 -16 26 -9 7 -20 23 -24 35 -24 62 -179
74 -235 19 -45 -46 -46 -110 -2 -196 17 -35 35 -65 40 -67 4 -2 7 -12 7 -23 0
-10 5 -19 10 -19 6 0 10 -9 10 -19 0 -11 3 -21 8 -23 8 -4 40 -59 82 -145 17
-34 35 -65 40 -68 6 -3 19 -26 30 -50 11 -24 24 -47 30 -50 6 -3 19 -25 30
-49 10 -23 26 -49 35 -56 8 -7 15 -17 15 -23 0 -5 11 -20 25 -33 14 -13 25
-30 25 -39 0 -8 5 -15 10 -15 6 0 10 -11 10 -25 0 -26 -63 -105 -84 -105 -17
-1 -86 -69 -86 -85 0 -8 -7 -15 -15 -15 -9 0 -18 -8 -22 -17 -3 -10 -22 -35
-41 -55 -43 -45 -78 -49 -112 -13 -13 14 -29 25 -36 25 -6 0 -17 7 -24 15 -7
9 -32 25 -55 35 -23 10 -48 26 -55 35 -7 8 -18 15 -25 15 -7 0 -18 7 -25 15
-7 9 -37 27 -66 41 -30 14 -56 29 -59 34 -3 5 -35 23 -70 40 -35 17 -67 35
-70 40 -9 15 -171 90 -194 90 -11 0 -21 5 -21 10 0 15 -135 13 -147 -2 -23
-29 -63 -110 -63 -128 0 -19 38 -92 51 -98 3 -1 21 -16 39 -32 19 -17 40 -30
47 -30 7 0 13 -4 13 -10 0 -5 6 -10 13 -10 7 0 22 -8 33 -17 21 -19 74 -51
141 -83 23 -11 45 -25 48 -29 3 -5 40 -26 83 -47 42 -21 79 -41 82 -44 10 -11
67 -42 156 -85 66 -33 93 -51 98 -67 7 -28 -3 -96 -15 -104 -5 -3 -9 -18 -9
-34 0 -16 -4 -32 -10 -35 -5 -3 -10 -21 -10 -40 0 -19 -4 -37 -10 -40 -5 -3
-10 -26 -10 -50 0 -24 -4 -47 -10 -50 -5 -3 -10 -15 -10 -26 0 -11 -6 -27 -14
-35 -17 -16 -92 -19 -101 -4 -4 6 -145 10 -390 10 -245 0 -386 -4 -390 -10 -3
-5 -16 -10 -29 -10 -40 0 -86 -69 -86 -128 0 -46 19 -89 56 -123 l26 -24 456
-1 456 -1 17 -29 c10 -17 18 -51 18 -81 1 -29 6 -53 11 -53 6 0 10 -15 10 -34
0 -19 5 -38 10 -41 6 -3 10 -15 10 -25 0 -11 8 -34 18 -52 30 -55 12 -105 -50
-137 -16 -8 -28 -18 -28 -23 0 -4 -9 -8 -20 -8 -11 0 -20 -4 -20 -8 0 -5 -16
-14 -35 -22 -20 -8 -43 -22 -52 -32 -9 -10 -20 -18 -26 -18 -15 0 -136 -60
-142 -70 -4 -6 -25 -19 -49 -30 -23 -10 -49 -26 -56 -35 -7 -8 -19 -15 -26
-15 -8 0 -14 -3 -14 -8 0 -4 -17 -15 -37 -25 -54 -25 -80 -41 -101 -60 -10
-10 -23 -17 -28 -17 -18 0 -94 -86 -94 -106 0 -11 -5 -25 -11 -31 -8 -8 -8
-13 0 -17 6 -4 11 -17 11 -30 0 -39 87 -106 138 -106 24 0 145 52 162 70 6 7
92 51 247 130 68 34 125 66 129 71 3 5 25 18 49 29 24 11 47 25 50 31 4 5 31
21 60 35 30 13 57 29 60 34 3 6 25 19 49 30 23 10 49 26 56 35 7 8 22 15 35
15 12 0 30 9 40 20 10 11 24 20 30 20 7 0 18 7 25 15 7 8 23 15 36 15 13 0 24
5 24 10 0 6 9 10 20 10 11 0 20 4 20 8 0 5 16 14 35 22 20 8 43 22 52 32 9 10
22 18 30 18 20 0 33 43 33 106 0 56 -16 100 -44 123 -20 17 -46 69 -46 93 0
10 -4 18 -10 18 -5 0 -10 9 -10 20 0 11 -4 20 -10 20 -5 0 -10 15 -10 34 0 19
-4 38 -10 41 -6 4 -10 65 -10 150 0 85 4 146 10 150 6 3 10 21 10 40 0 19 5
37 10 40 6 3 10 17 10 30 0 13 5 27 10 30 6 3 10 14 10 25 0 22 38 97 62 124
10 11 20 28 24 38 3 10 10 18 15 18 5 0 9 6 9 13 0 23 214 217 239 217 6 0 11
5 11 10 0 6 9 10 20 10 11 0 20 5 20 10 0 6 9 10 20 10 11 0 35 9 55 20 20 11
44 20 53 20 10 0 24 6 31 13 9 9 69 12 231 12 162 0 222 -3 232 -12 6 -7 22
-13 34 -13 13 0 26 -4 29 -10 3 -5 17 -10 31 -10 13 0 24 -4 24 -10 0 -5 5
-10 11 -10 12 0 103 -60 107 -72 2 -4 8 -8 13 -8 41 0 229 -188 229 -228 0 -5
18 -26 40 -47 22 -21 40 -45 40 -52 0 -9 15 -13 48 -13 50 0 100 19 122 45 7
8 18 15 24 15 7 0 30 15 52 33 21 18 65 45 96 61 32 15 60 31 63 36 3 4 49 29
103 55 53 25 111 53 127 62 17 9 49 26 73 38 24 13 51 29 60 37 9 8 42 27 73
42 32 14 62 33 68 40 7 8 24 17 39 21 15 3 36 15 47 24 11 10 35 24 53 32 17
8 32 17 32 21 0 5 6 8 13 8 7 0 23 9 35 20 12 11 25 20 30 20 5 0 33 24 61 53
49 50 51 54 51 110 0 55 -13 89 -47 125 -7 7 -38 12 -78 12 -60 0 -76 -5 -190
-60 -69 -34 -127 -65 -130 -70 -3 -5 -23 -17 -43 -27 -20 -9 -46 -25 -56 -35
-11 -10 -24 -18 -29 -18 -4 0 -23 -11 -41 -25 -18 -14 -37 -25 -43 -25 -5 0
-18 -8 -29 -18 -10 -10 -35 -25 -55 -35 -20 -9 -42 -23 -49 -32 -7 -8 -18 -15
-25 -15 -7 0 -18 -7 -25 -15 -7 -9 -33 -25 -57 -36 -40 -18 -45 -18 -73 -4
-17 9 -30 21 -30 27 0 14 -181 198 -195 198 -19 0 -55 45 -55 69 0 22 22 57
68 107 12 14 22 31 22 39 0 8 5 15 10 15 6 0 10 9 10 19 0 10 7 21 15 24 8 3
23 26 34 51 12 25 25 48 31 51 6 3 19 25 31 48 36 74 66 127 81 145 8 9 25 40
38 67 14 28 33 57 42 66 10 9 18 24 18 33 0 9 4 16 9 16 11 0 21 47 28 125 4
57 3 62 -30 98 -33 35 -37 37 -99 37 -74 0 -125 -20 -138 -55 -5 -13 -13 -26
-19 -29 -5 -4 -22 -32 -37 -64 -15 -31 -38 -70 -51 -85 -13 -16 -23 -36 -23
-44 0 -9 -8 -23 -18 -32 -10 -9 -30 -42 -46 -73 -15 -32 -31 -60 -36 -63 -5
-3 -28 -45 -50 -93 -76 -159 -85 -177 -92 -180 -5 -2 -8 -13 -8 -25 -1 -34
-24 -57 -58 -57 -17 0 -34 5 -37 10 -3 6 -17 10 -30 10 -13 0 -27 5 -30 10 -3
6 -17 10 -30 10 -13 0 -27 5 -30 10 -3 6 -17 10 -30 10 -13 0 -27 5 -30 10 -3
6 -28 10 -55 10 -27 0 -52 5 -55 10 -3 6 -16 10 -29 10 -46 0 -46 -1 -46 459
0 431 0 436 -22 483 -13 26 -30 49 -38 52 -8 3 -28 11 -45 19 -16 8 -37 12
-45 9z"/>
<path d="M6815 7150 c-3 -5 -26 -10 -51 -10 -24 0 -44 -4 -44 -10 0 -5 -15
-10 -34 -10 -19 0 -38 -4 -41 -10 -3 -5 -17 -10 -30 -10 -13 0 -27 -4 -30 -10
-3 -5 -17 -10 -30 -10 -13 0 -26 -4 -30 -10 -3 -5 -12 -7 -19 -4 -8 3 -17 1
-21 -5 -3 -6 -15 -11 -26 -11 -10 0 -19 -4 -19 -10 0 -5 -9 -10 -19 -10 -11 0
-21 -4 -23 -8 -1 -4 -38 -25 -80 -46 -43 -21 -80 -42 -84 -47 -3 -5 -24 -18
-47 -28 -24 -11 -51 -29 -61 -40 -11 -12 -24 -21 -30 -21 -6 0 -29 -18 -50
-40 -22 -22 -43 -40 -48 -40 -12 0 -168 -156 -168 -168 0 -6 -22 -32 -50 -58
-27 -26 -50 -53 -50 -59 0 -6 -11 -22 -25 -35 -14 -13 -25 -29 -25 -35 0 -13
-44 -54 -77 -72 -16 -9 -81 -13 -221 -13 -109 0 -202 -4 -208 -9 -5 -5 -31
-11 -59 -14 -27 -2 -61 -8 -75 -12 -14 -4 -37 -9 -53 -12 -15 -3 -30 -9 -33
-14 -3 -5 -13 -9 -23 -9 -21 0 -71 -22 -71 -32 0 -5 -8 -8 -18 -8 -22 0 -79
-27 -87 -41 -4 -5 -25 -18 -49 -29 -23 -10 -49 -26 -56 -35 -7 -8 -18 -15 -24
-15 -7 0 -23 -11 -36 -25 -13 -14 -28 -25 -34 -25 -14 0 -226 -212 -226 -226
0 -6 -13 -23 -30 -39 -16 -16 -30 -34 -30 -41 0 -6 -7 -17 -15 -24 -8 -7 -29
-41 -45 -75 -16 -34 -36 -68 -44 -74 -8 -7 -18 -26 -22 -44 -3 -17 -15 -46
-25 -64 -11 -19 -19 -42 -19 -53 0 -10 -4 -22 -10 -25 -5 -3 -10 -17 -10 -30
0 -13 -4 -27 -10 -30 -5 -3 -10 -16 -10 -29 0 -12 -10 -32 -23 -44 -20 -19
-35 -22 -105 -22 -48 0 -82 -4 -82 -10 0 -5 -20 -10 -44 -10 -25 0 -48 -4 -51
-10 -3 -5 -21 -10 -40 -10 -19 0 -37 -4 -40 -10 -3 -5 -14 -10 -24 -10 -21 0
-204 -91 -230 -114 -10 -9 -22 -16 -28 -16 -5 0 -18 -9 -28 -20 -10 -11 -23
-20 -29 -20 -14 0 -186 -171 -186 -185 0 -6 -13 -24 -30 -40 -16 -16 -30 -34
-30 -41 0 -6 -7 -17 -15 -24 -8 -7 -27 -37 -42 -69 -15 -31 -31 -57 -35 -59
-4 -2 -8 -12 -8 -21 0 -10 -3 -21 -7 -25 -5 -4 -8 -11 -9 -14 -2 -22 -17 -69
-25 -84 -5 -10 -9 -31 -9 -47 0 -17 -4 -33 -10 -36 -5 -3 -10 -46 -10 -95 0
-49 -4 -92 -10 -95 -13 -8 -13 -52 0 -60 6 -3 10 -46 10 -95 0 -49 5 -92 10
-95 6 -3 10 -23 10 -44 0 -21 8 -53 17 -72 10 -19 18 -43 18 -54 0 -25 80
-188 100 -205 8 -7 15 -18 15 -25 0 -6 9 -20 20 -30 11 -10 20 -23 20 -30 0
-12 174 -185 186 -185 4 0 20 -12 35 -26 32 -30 35 -32 184 -108 61 -31 118
-56 128 -56 9 0 17 -4 17 -10 0 -5 24 -10 54 -10 30 0 58 -4 61 -10 9 -14
4651 -14 4660 0 3 6 26 10 51 10 24 0 44 5 44 10 0 6 11 10 24 10 14 0 28 5
31 10 3 5 18 10 33 10 28 0 250 106 281 134 10 9 22 16 28 16 5 0 18 9 28 20
10 11 23 20 30 20 6 0 24 13 40 30 16 17 34 30 40 30 13 0 145 132 145 146 0
5 18 28 40 49 22 21 40 44 40 50 0 7 9 20 20 30 11 10 20 24 20 30 0 7 7 18
15 25 15 13 75 130 75 147 0 6 3 13 8 15 12 5 52 88 52 108 0 11 5 22 10 25 6
3 10 17 10 30 0 13 5 27 10 30 6 3 10 23 10 43 0 20 7 46 15 56 22 30 22 518
0 536 -9 8 -15 29 -15 56 0 23 -4 46 -10 49 -5 3 -10 17 -10 31 0 13 -4 24
-10 24 -5 0 -10 14 -10 30 0 17 -3 30 -7 30 -10 0 -33 48 -34 69 0 9 -9 30
-19 46 -11 17 -33 58 -49 91 -17 34 -38 67 -46 74 -8 7 -15 17 -15 23 0 5 -13
23 -30 39 -16 15 -30 33 -30 38 0 12 -158 170 -230 231 -30 25 -99 66 -152 93
-53 26 -102 54 -108 62 -7 8 -18 14 -24 14 -18 0 -36 51 -36 102 0 26 -4 48
-10 48 -5 0 -10 15 -10 34 0 19 -4 38 -10 41 -5 3 -10 21 -10 40 0 19 -4 37
-10 40 -5 3 -10 17 -10 30 0 13 -4 27 -10 30 -5 3 -10 18 -10 32 0 29 -132
304 -155 323 -8 7 -15 16 -15 21 0 13 -56 92 -84 118 -14 14 -26 29 -26 34 0
14 -237 247 -251 247 -6 0 -22 12 -34 26 -21 25 -47 43 -90 63 -12 5 -27 16
-34 25 -7 9 -19 16 -26 16 -7 0 -18 7 -25 15 -16 19 -68 45 -90 45 -9 0 -25 9
-35 20 -10 11 -26 20 -36 20 -10 0 -35 9 -54 20 -20 11 -40 18 -45 15 -5 -3
-11 -1 -15 5 -3 5 -17 10 -30 10 -13 0 -27 5 -30 10 -3 6 -17 10 -30 10 -13 0
-27 5 -30 10 -3 6 -21 10 -40 10 -19 0 -37 5 -40 10 -3 6 -28 10 -55 10 -27 0
-52 5 -55 10 -4 6 -98 10 -250 10 -152 0 -246 -4 -250 -10z m280 -510 c3 -6
48 -10 100 -10 52 0 97 -4 100 -10 3 -5 19 -10 35 -10 16 0 32 -4 35 -10 3 -5
17 -10 30 -10 13 0 27 -4 30 -10 3 -5 14 -10 24 -10 20 0 144 -60 149 -72 2
-5 17 -8 33 -8 19 0 42 -12 68 -35 21 -19 42 -35 47 -35 12 0 234 -223 234
-235 0 -6 9 -17 20 -25 11 -8 20 -22 20 -32 0 -10 4 -18 9 -18 11 0 101 -179
101 -202 0 -9 5 -20 10 -23 6 -3 10 -17 10 -30 0 -13 5 -27 10 -30 6 -3 10
-21 10 -40 0 -18 6 -35 13 -38 9 -3 9 -9 0 -25 -8 -13 -9 -23 -3 -27 6 -3 10
-35 10 -71 0 -36 4 -64 10 -64 6 0 10 -15 10 -34 0 -19 -4 -38 -10 -41 -15 -9
-13 -178 2 -193 7 -7 22 -12 34 -12 13 0 26 -4 29 -10 3 -5 17 -10 31 -10 13
0 24 -4 24 -10 0 -5 13 -10 30 -10 16 0 45 -9 65 -20 20 -11 44 -20 55 -20 12
0 20 -7 20 -16 0 -10 6 -14 14 -11 18 7 66 -14 66 -30 0 -6 8 -9 18 -6 11 3
31 -7 50 -25 17 -16 42 -32 55 -36 13 -3 30 -17 37 -31 8 -14 19 -24 26 -21
14 5 99 -78 91 -91 -3 -4 10 -19 29 -33 18 -14 34 -33 34 -42 0 -10 5 -18 11
-18 6 0 8 -9 4 -20 -5 -14 -2 -20 10 -20 12 0 15 -6 10 -20 -4 -14 -2 -20 9
-20 10 0 13 -6 10 -15 -4 -8 -1 -15 4 -15 18 0 44 -66 37 -91 -5 -13 -2 -24 6
-29 15 -10 19 -47 8 -78 -7 -17 -5 -24 6 -28 12 -5 15 -28 15 -120 0 -76 -4
-114 -11 -114 -6 0 -10 -17 -8 -42 2 -42 -2 -64 -22 -100 -5 -10 -9 -25 -9
-33 0 -8 -7 -15 -16 -15 -10 0 -14 -5 -10 -15 3 -9 -1 -18 -10 -22 -8 -3 -13
-12 -10 -20 3 -7 -1 -16 -9 -19 -8 -4 -13 -10 -10 -14 8 -13 -26 -70 -56 -92
-15 -12 -26 -25 -22 -31 7 -11 -86 -107 -104 -107 -8 0 -27 -16 -44 -35 -31
-35 -86 -68 -99 -60 -4 3 -10 -2 -14 -10 -3 -8 -12 -12 -21 -9 -10 4 -15 0
-15 -11 0 -11 -6 -15 -19 -10 -12 3 -21 0 -25 -10 -3 -9 -11 -13 -17 -10 -5 4
-16 -1 -23 -10 -10 -14 -17 -15 -34 -6 -29 16 -40 14 -38 -6 1 -15 -6 -17 -39
-15 -67 5 -220 -1 -220 -8 0 -2 -1891 -7 -3299 -9 -628 -1 -943 2 -950 9 -5 5
-20 10 -33 10 -14 0 -23 6 -23 16 0 12 -7 14 -29 9 -24 -5 -32 -2 -41 15 -6
12 -17 19 -23 17 -14 -4 -37 16 -37 33 0 7 -7 9 -16 6 -18 -7 -138 108 -131
127 2 6 -6 16 -17 22 -11 6 -23 19 -25 30 -2 11 -6 22 -10 25 -3 3 -16 25 -28
48 -21 40 -23 58 -23 202 0 95 4 161 10 165 6 3 10 15 10 26 0 20 15 52 39 82
16 20 36 53 50 84 11 24 29 37 51 38 8 0 15 9 15 20 0 10 10 24 21 30 12 6 29
17 38 24 33 27 150 81 177 81 15 0 30 4 33 8 7 11 215 12 221 1 4 -5 22 -9 41
-9 19 0 34 -4 34 -10 0 -5 15 -10 34 -10 19 0 38 -4 41 -10 3 -6 21 -10 40
-10 19 0 37 -4 40 -10 3 -5 14 -10 24 -10 10 0 32 -7 47 -15 16 -8 37 -12 47
-9 9 3 17 1 17 -5 0 -5 15 -15 34 -21 39 -13 76 2 76 31 0 9 3 44 6 78 6 54 5
61 -11 61 -16 0 -17 9 -10 106 6 96 5 107 -11 120 -18 14 -18 14 0 29 17 13
18 23 12 95 -6 68 -5 80 8 80 12 0 14 7 10 28 -4 19 1 41 15 65 12 21 21 46
21 57 0 11 9 25 20 32 11 7 20 21 20 30 0 10 5 18 10 18 6 0 10 9 10 20 0 11
5 20 10 20 6 0 10 8 10 18 0 17 171 192 188 192 5 0 15 7 22 15 7 8 42 29 79
46 36 16 74 34 83 40 10 5 27 9 37 9 11 0 23 5 26 10 3 6 17 10 31 10 13 0 24
5 24 11 0 8 23 10 69 7 44 -2 69 0 68 7 -1 6 25 11 61 13 47 2 64 -1 68 -12 4
-11 18 -13 60 -9 44 5 54 3 54 -10 0 -12 8 -14 40 -10 31 4 40 2 40 -9 0 -11
7 -14 25 -10 16 3 27 -1 30 -10 4 -10 15 -13 30 -10 14 2 33 1 42 -3 26 -11
53 -16 98 -18 33 -2 42 2 50 21 5 12 13 22 17 22 5 0 8 9 8 20 0 11 5 20 10
20 6 0 10 8 10 17 0 9 29 76 65 149 36 73 65 137 65 143 0 6 9 16 20 23 11 7
20 20 20 28 0 9 9 22 20 30 11 8 20 19 20 26 0 13 193 207 212 213 7 2 25 17
40 33 14 15 33 28 41 28 9 0 19 5 22 10 4 7 12 7 25 0 14 -7 19 -6 23 9 5 20
59 51 88 51 10 0 21 5 24 10 3 6 17 10 31 10 13 0 24 5 24 10 0 6 14 10 30 10
17 0 30 5 30 11 0 8 17 10 50 7 35 -4 53 -1 61 8 8 10 35 14 85 14 40 0 76 5
79 10 3 6 12 10 20 10 8 0 17 -4 20 -10z"/>
</g>
</svg>
